# xmcd
#
# Track frame offsets: 
#        182
#        12017
#        23627
#        34347
#        44822
#        54965
#        65715
#        78515
#        87592
#        99262
#        109510
#        121572
#        131527
#        140290
#        149622
#        162045
#        170992
#        180735
#
# Disc length: 2541 seconds
#
# Revision: 1
# Processed by: cddbd v1.5.2PL0 Copyright (c) Steve Scherf et al.
# Submitted via: ExactAudioCopy v1.3
#
DISCID=f209eb12
DTITLE=Don Gibson - The Best Of Don Gibson
DYEAR=1994
DGENRE=Country
TTITLE0=Sea Of Heartbreak
TTITLE1=Oh, Lonesome Me
TTITLE2=Lonesome No 1
TTITLE3={Yes} I'm Hurting
TTITLE4=Who Cares (For Me)
TTITLE5=So How Come (No One Loves Me)
TTITLE6=It's A Long, Long Way To Georgia
TTITLE7=Blue Blue Day
TTITLE8=I Can Mand Your Broken Heart
TTITLE9=Funny Familar ,Forgotten Feelings
TTITLE10=I Can't Stop Loving You
TTITLE11=Don't Tell Me Your Troubles
TTITLE12=Sweet Dreams
TTITLE13=Watch Where You're Going
TTITLE14=Just One Time
TTITLE15=Head Over Heels In Love With You
TTITLE16=Far Far Away
TTITLE17=I'm Movin' On
EXTD=
EXTT0=
EXTT1=
EXTT2=
EXTT3=
EXTT4=
EXTT5=
EXTT6=
EXTT7=
EXTT8=
EXTT9=
EXTT10=
EXTT11=
EXTT12=
EXTT13=
EXTT14=
EXTT15=
EXTT16=
EXTT17=
PLAYORDER=
